<?xml version="1.0" encoding="UTF-8"?>
<svg id="_图层_4" data-name="图层 4" xmlns="http://www.w3.org/2000/svg" viewBox="0 0 1024 1024">
  <defs>
    <style>
      .cls-1 {
        fill: #0e3b74;
      }
    </style>
  </defs>
  <path class="cls-1" d="M269.71,372.89c20.88-12.69,83.88-48.05,150.28-35.53,64.86,107.15,249.52,156.43,279.4,123.89,19.29-30.33,7.95-101.15.4-153.09,13.73-16.38,54.79-35.44,63.35-37.21,7.84-20.43,31.04-40.05,33.17-42.26-5.41-4.64-23.24-14.86-24.04-45.18-.66-25.16,15.85-31.51,15.85-31.51,0,0,8.63-35.58,41.99-46.61,29.25-9.68,49.47,13.91,49.47,13.91,0,0,21.05-.25,35.07,14.02,17.96,18.29,23.93,53.33,15.94,78.63-5.83,18.47-51.52,75.14-56.31,91.1-5.44,18.12-40.01,71.09-40.01,71.09,0,0-50.02,62.68-61.63,74.3-20.43,20.45-58.75,42.26-62.02,44.11-8.92,37.37-27.39,74.21-48.81,90.99-8.92,11.08-81.93,55.67-148.27,65.93-20.74,3.21-40.82,3.07-58.09-2.5-38.83-12.52-67.84-31.87-87.1-51.94-16.47-17.16-25.8-34.83-28.04-49.19-104.1.66-186.7-29.67-181.66-89.84,3.94-52.9,66.5-59.23,111.04-83.12Z"/>
</svg>